<?xml version="1.0"?>
<svg width="1280" height="806" xmlns="http://www.w3.org/2000/svg" xmlns:svg="http://www.w3.org/2000/svg" preserveAspectRatio="xMidYMid meet" version="1.0">
 <metadata>Created by potrace 1.15, written by Peter Selinger 2001-2017</metadata>
 <g class="layer">
  <title>Layer 1</title>
  <g fill="#000000" id="svg_1" transform="matrix(0.1 0 0 -0.1 0 0)">
   <path d="m6006,-2c-142,-48 -239,-146 -326,-331c-56,-119 -105,-275 -205,-644c-125,-464 -149,-548 -216,-752c-140,-428 -295,-765 -482,-1050c-403,-613 -946,-964 -1666,-1079c-119,-19 -350,-41 -432,-41l-38,0l0,1375l0,1375l104,0c89,0 107,3 130,21c32,25 33,59 3,87c-23,22 -30,22 -303,22c-280,0 -281,0 -302,-23c-28,-30 -28,-52 3,-82c23,-24 31,-25 135,-25l110,0l-2,-1372l-3,-1373l-1201,-3l-1201,-2l-11,25c-7,14 -23,31 -37,37c-22,10 -30,8 -53,-9l-27,-20l-3,-283c-2,-280 -2,-284 20,-307c12,-13 32,-23 44,-23c23,0 64,42 64,66c0,12 190,14 1203,12l1202,-3l0,-1375l0,-1375l-115,-3c-103,-2 -117,-4 -132,-23c-23,-28 -23,-54 2,-79c19,-19 33,-20 305,-20c272,0 286,1 305,20c24,24 25,48 4,78c-14,21 -23,22 -130,22l-114,0l0,1380l0,1380l83,0c257,0 629,59 914,146l113,34l650,0l650,0l0,-110c0,-97 2,-112 20,-130c25,-25 51,-25 81,-1c22,18 24,28 27,130l4,111l919,0c505,0 922,0 927,1c4,0 40,-156 79,-348c329,-1583 579,-2488 820,-2967c145,-288 325,-466 511,-505c213,-44 439,57 579,261c108,157 173,317 302,749c51,167 115,374 143,459c254,777 596,1282 1099,1622c399,271 896,439 1494,507c94,11 233,22 310,26c77,3 173,8 213,11c58,4 72,2 72,-9c0,-25 41,-67 64,-67c12,0 32,10 44,23c22,23 22,27 20,307l-3,283l-27,20c-23,17 -31,19 -53,9c-14,-6 -30,-22 -36,-35c-10,-23 -15,-23 -253,-35c-395,-20 -703,-63 -1025,-142l-163,-40l-486,2l-487,3l-3,110c-2,98 -5,112 -23,128c-28,22 -54,22 -79,-3c-18,-18 -20,-33 -20,-130l0,-110l-1205,0l-1205,0l0,110c0,97 -2,112 -20,130c-25,25 -51,25 -81,1c-22,-18 -24,-28 -27,-130l-4,-111l-29,0c-16,0 -29,4 -29,9c0,11 -190,950 -275,1356c-151,728 -311,1396 -414,1735c-182,598 -327,857 -535,956c-66,32 -89,37 -164,40c-55,3 -102,-1 -127,-9zm170,-649c143,-313 294,-860 500,-1813c65,-300 96,-451 225,-1090c55,-269 102,-500 105,-512l5,-23l-914,0l-914,0l-4,111c-3,102 -5,112 -27,130c-30,24 -56,24 -81,-1c-18,-18 -20,-33 -20,-130l0,-110l-490,0c-269,0 -490,2 -490,5c0,3 28,19 62,36c169,85 392,242 563,397c432,389 779,970 1030,1726c75,225 115,364 225,776c87,323 166,580 179,580c5,0 25,-37 46,-82zm4675,-3565c0,-1 -74,-37 -165,-82c-470,-228 -801,-498 -1104,-900c-278,-371 -474,-793 -672,-1448c-178,-592 -224,-723 -295,-828c-48,-73 -69,-78 -112,-29c-116,134 -262,477 -401,941c-52,175 -76,263 -161,588c-49,191 -175,739 -250,1090c-44,209 -83,390 -85,403c-5,20 -3,22 14,13c29,-16 49,-13 71,9c18,18 20,33 20,130l0,110l1205,0l1205,0l0,-110c0,-97 2,-112 20,-130c24,-24 48,-25 78,-4c21,14 22,23 22,128c0,62 2,115 4,117c4,4 606,6 606,2zm-3271,-65c-1,-61 -1,-62 -10,-23c-5,22 -11,50 -14,63c-4,15 -1,22 10,22c12,0 15,-13 14,-62z" fill="#34c3eb" id="svg_2"/>
   <path d="m415.33,400c-3.74,0 -4.6,0 -5.46,0c-0.82,0 -2.16,0 -2.82,0c-1.06,0 -1.76,0 -2.69,0c-0.78,0 -1.7,0 -2.78,0c-0.59,0 -1.21,0 -2.54,0c-0.7,0 -1.41,0 -2.89,0c-0.76,0 -1.52,0 -2.3,0c-0.78,0 -1.58,0 -2.38,0c-0.82,0 -1.64,0 -3.32,0c-0.85,0 -1.72,0 -2.58,0c-0.87,0 -1.73,0 -2.59,0c-0.85,0 -1.69,0 -3.33,0c-0.79,0 -1.57,0 -2.35,0.01c-0.78,0.01 -1.57,0.03 -2.38,0.06c-0.84,0.04 -1.72,0.08 -3.61,0.26c-1.03,0.1 -2.11,0.23 -3.24,0.39c-1.17,0.17 -2.37,0.37 -3.59,0.6c-1.24,0.24 -2.51,0.49 -5.01,1.17c-1.25,0.34 -2.48,0.75 -3.71,1.16c-1.22,0.42 -2.44,0.86 -3.65,1.3c-1.21,0.44 -2.4,0.9 -4.81,1.71c-1.2,0.4 -2.4,0.77 -3.6,1.11c-1.2,0.33 -2.41,0.64 -3.63,0.9c-1.22,0.26 -2.44,0.52 -4.93,0.83c-1.25,0.16 -2.52,0.25 -3.79,0.33c-1.27,0.08 -2.55,0.13 -3.82,0.17c-1.27,0.04 -2.54,0.06 -5.06,0.16c-1.25,0.05 -2.48,0.12 -3.71,0.19c-1.22,0.07 -2.44,0.15 -3.65,0.22c-1.21,0.07 -2.41,0.15 -4.81,0.26c-1.2,0.05 -2.4,0.08 -3.59,0.12c-1.19,0.04 -2.37,0.08 -3.54,0.14c-1.16,0.06 -2.31,0.11 -4.54,0.4c-1.09,0.14 -2.16,0.34 -3.2,0.56c-1.02,0.21 -2.01,0.44 -2.97,0.67c-0.93,0.22 -1.82,0.45 -3.5,0.78c-0.78,0.15 -1.53,0.25 -2.26,0.34c-0.71,0.08 -1.41,0.14 -2.11,0.2c-0.71,0.06 -1.44,0.11 -2.97,0.29c-0.82,0.1 -1.67,0.23 -2.53,0.39c-0.87,0.16 -1.73,0.33 -2.56,0.54c-0.81,0.2 -1.59,0.38 -2.91,0.91c-0.57,0.23 -1.06,0.5 -1.48,0.78c-0.38,0.25 -0.71,0.51 -1,0.76l-0.27,0.23l-0.25,0.21" fill="none" id="svg_3"/>
   <polyline fill="none" id="svg_4" opacity="0.5" points="292.333 414 296.512 417.299 297.185 417.886 297.854 418.437 298.543 418.928" stroke-linecap="round"/>
   <line fill="none" id="svg_5" x1="77" x2="175" y1="154" y2="354"/>
  </g>
 </g>
</svg>